<mxfile host="65bd71144e">
    <diagram name="Page-1" id="5f0bae14-7c28-e335-631c-24af17079c00">
        <mxGraphModel dx="552" dy="1042" grid="1" gridSize="10" guides="1" tooltips="1" connect="1" arrows="1" fold="1" page="1" pageScale="1" pageWidth="1100" pageHeight="850" background="none" math="0" shadow="0">
            <root>
                <mxCell id="0"/>
                <mxCell id="1" parent="0"/>
                <mxCell id="35" style="edgeStyle=none;html=1;startArrow=box;startFill=0;endArrow=oval;endFill=1;" parent="1" source="10" edge="1">
                    <mxGeometry relative="1" as="geometry">
                        <mxPoint x="545" y="100" as="targetPoint"/>
                    </mxGeometry>
                </mxCell>
                <mxCell id="10" value="" style="html=1;dropTarget=0;whiteSpace=wrap;" parent="1" vertex="1">
                    <mxGeometry x="362.5" y="-170" width="365" height="140" as="geometry"/>
                </mxCell>
                <mxCell id="11" value="" style="shape=module;jettyWidth=8;jettyHeight=4;" parent="10" vertex="1">
                    <mxGeometry x="1" width="20" height="20" relative="1" as="geometry">
                        <mxPoint x="-23" y="17" as="offset"/>
                    </mxGeometry>
                </mxCell>
                <mxCell id="30" style="edgeStyle=none;html=1;startArrow=box;startFill=0;endArrow=halfCircle;endFill=0;" parent="1" source="8" edge="1">
                    <mxGeometry relative="1" as="geometry">
                        <mxPoint x="545" y="110" as="targetPoint"/>
                    </mxGeometry>
                </mxCell>
                <mxCell id="8" value="" style="html=1;dropTarget=0;whiteSpace=wrap;" parent="1" vertex="1">
                    <mxGeometry x="140" y="190" width="810" height="500" as="geometry"/>
                </mxCell>
                <mxCell id="9" value="" style="shape=module;jettyWidth=8;jettyHeight=4;" parent="8" vertex="1">
                    <mxGeometry x="1" width="20" height="20" relative="1" as="geometry">
                        <mxPoint x="-27" y="7" as="offset"/>
                    </mxGeometry>
                </mxCell>
                <mxCell id="7e5tT1p5ieJpJA2HxBmE-5" value="File encoder" style="html=1;dropTarget=0;whiteSpace=wrap;" parent="1" vertex="1">
                    <mxGeometry x="220" y="200" width="160" height="80" as="geometry"/>
                </mxCell>
                <mxCell id="7e5tT1p5ieJpJA2HxBmE-6" value="" style="shape=module;jettyWidth=8;jettyHeight=4;" parent="7e5tT1p5ieJpJA2HxBmE-5" vertex="1">
                    <mxGeometry x="1" width="20" height="20" relative="1" as="geometry">
                        <mxPoint x="-27" y="7" as="offset"/>
                    </mxGeometry>
                </mxCell>
                <mxCell id="Pq3CCJtutbr2L0LvL23w-29" style="edgeStyle=orthogonalEdgeStyle;rounded=0;orthogonalLoop=1;jettySize=auto;html=1;startArrow=none;startFill=0;endArrow=oval;endFill=1;" parent="1" source="7e5tT1p5ieJpJA2HxBmE-7" edge="1">
                    <mxGeometry relative="1" as="geometry">
                        <mxPoint x="690" y="320.0000000000001" as="targetPoint"/>
                    </mxGeometry>
                </mxCell>
                <mxCell id="7e5tT1p5ieJpJA2HxBmE-7" value="Pcf service" style="html=1;dropTarget=0;whiteSpace=wrap;" parent="1" vertex="1">
                    <mxGeometry x="480" y="280" width="160" height="80" as="geometry"/>
                </mxCell>
                <mxCell id="7e5tT1p5ieJpJA2HxBmE-8" value="" style="shape=module;jettyWidth=8;jettyHeight=4;" parent="7e5tT1p5ieJpJA2HxBmE-7" vertex="1">
                    <mxGeometry x="1" width="20" height="20" relative="1" as="geometry">
                        <mxPoint x="-27" y="7" as="offset"/>
                    </mxGeometry>
                </mxCell>
                <mxCell id="Pq3CCJtutbr2L0LvL23w-47" style="edgeStyle=orthogonalEdgeStyle;rounded=0;orthogonalLoop=1;jettySize=auto;html=1;endArrow=halfCircle;endFill=0;" parent="1" source="7e5tT1p5ieJpJA2HxBmE-41" edge="1">
                    <mxGeometry relative="1" as="geometry">
                        <mxPoint x="560" y="730" as="targetPoint"/>
                        <Array as="points">
                            <mxPoint x="560" y="740"/>
                            <mxPoint x="560" y="740"/>
                        </Array>
                    </mxGeometry>
                </mxCell>
                <mxCell id="7e5tT1p5ieJpJA2HxBmE-41" value="Ressource Prediction service" style="html=1;dropTarget=0;whiteSpace=wrap;" parent="1" vertex="1">
                    <mxGeometry x="480" y="760" width="160" height="80" as="geometry"/>
                </mxCell>
                <mxCell id="7e5tT1p5ieJpJA2HxBmE-42" value="" style="shape=module;jettyWidth=8;jettyHeight=4;" parent="7e5tT1p5ieJpJA2HxBmE-41" vertex="1">
                    <mxGeometry x="1" width="20" height="20" relative="1" as="geometry">
                        <mxPoint x="-27" y="7" as="offset"/>
                    </mxGeometry>
                </mxCell>
                <mxCell id="Pq3CCJtutbr2L0LvL23w-89" style="edgeStyle=orthogonalEdgeStyle;rounded=0;orthogonalLoop=1;jettySize=auto;html=1;endArrow=halfCircle;endFill=0;" parent="1" source="Pq3CCJtutbr2L0LvL23w-3" edge="1">
                    <mxGeometry relative="1" as="geometry">
                        <mxPoint x="300" y="730" as="targetPoint"/>
                    </mxGeometry>
                </mxCell>
                <mxCell id="Pq3CCJtutbr2L0LvL23w-3" value="Nash Service" style="html=1;dropTarget=0;whiteSpace=wrap;" parent="1" vertex="1">
                    <mxGeometry x="220" y="760" width="160" height="80" as="geometry"/>
                </mxCell>
                <mxCell id="Pq3CCJtutbr2L0LvL23w-4" value="" style="shape=module;jettyWidth=8;jettyHeight=4;" parent="Pq3CCJtutbr2L0LvL23w-3" vertex="1">
                    <mxGeometry x="1" width="20" height="20" relative="1" as="geometry">
                        <mxPoint x="-27" y="7" as="offset"/>
                    </mxGeometry>
                </mxCell>
                <mxCell id="Pq3CCJtutbr2L0LvL23w-28" style="edgeStyle=orthogonalEdgeStyle;rounded=0;orthogonalLoop=1;jettySize=auto;html=1;endArrow=halfCircle;endFill=0;" parent="1" source="Pq3CCJtutbr2L0LvL23w-5" edge="1">
                    <mxGeometry relative="1" as="geometry">
                        <mxPoint x="690" y="320.0000000000001" as="targetPoint"/>
                    </mxGeometry>
                </mxCell>
                <mxCell id="Pq3CCJtutbr2L0LvL23w-5" value="Pcf calculator" style="html=1;dropTarget=0;whiteSpace=wrap;" parent="1" vertex="1">
                    <mxGeometry x="750" y="230" width="160" height="80" as="geometry"/>
                </mxCell>
                <mxCell id="Pq3CCJtutbr2L0LvL23w-6" value="" style="shape=module;jettyWidth=8;jettyHeight=4;" parent="Pq3CCJtutbr2L0LvL23w-5" vertex="1">
                    <mxGeometry x="1" width="20" height="20" relative="1" as="geometry">
                        <mxPoint x="-27" y="7" as="offset"/>
                    </mxGeometry>
                </mxCell>
                <mxCell id="Pq3CCJtutbr2L0LvL23w-49" style="edgeStyle=orthogonalEdgeStyle;rounded=0;orthogonalLoop=1;jettySize=auto;html=1;endArrow=halfCircle;endFill=0;" parent="1" source="Pq3CCJtutbr2L0LvL23w-7" edge="1">
                    <mxGeometry relative="1" as="geometry">
                        <mxPoint x="830" y="730" as="targetPoint"/>
                    </mxGeometry>
                </mxCell>
                <mxCell id="Pq3CCJtutbr2L0LvL23w-7" value="Lst Parser service" style="html=1;dropTarget=0;whiteSpace=wrap;" parent="1" vertex="1">
                    <mxGeometry x="750" y="760" width="160" height="80" as="geometry"/>
                </mxCell>
                <mxCell id="Pq3CCJtutbr2L0LvL23w-8" value="" style="shape=module;jettyWidth=8;jettyHeight=4;" parent="Pq3CCJtutbr2L0LvL23w-7" vertex="1">
                    <mxGeometry x="1" width="20" height="20" relative="1" as="geometry">
                        <mxPoint x="-27" y="7" as="offset"/>
                    </mxGeometry>
                </mxCell>
                <mxCell id="Pq3CCJtutbr2L0LvL23w-45" style="edgeStyle=orthogonalEdgeStyle;rounded=0;orthogonalLoop=1;jettySize=auto;html=1;endArrow=oval;endFill=1;startArrow=box;startFill=0;" parent="1" edge="1">
                    <mxGeometry relative="1" as="geometry">
                        <mxPoint x="560" y="730" as="targetPoint"/>
                        <mxPoint x="559.72" y="690" as="sourcePoint"/>
                        <Array as="points">
                            <mxPoint x="560" y="715"/>
                            <mxPoint x="560" y="715"/>
                        </Array>
                    </mxGeometry>
                </mxCell>
                <mxCell id="Pq3CCJtutbr2L0LvL23w-61" style="edgeStyle=orthogonalEdgeStyle;rounded=0;orthogonalLoop=1;jettySize=auto;html=1;endArrow=oval;endFill=1;startArrow=box;startFill=0;" parent="1" edge="1">
                    <mxGeometry relative="1" as="geometry">
                        <mxPoint x="830" y="730" as="targetPoint"/>
                        <mxPoint x="829.5200000000001" y="690" as="sourcePoint"/>
                        <Array as="points">
                            <mxPoint x="830" y="710"/>
                            <mxPoint x="830" y="710"/>
                        </Array>
                    </mxGeometry>
                </mxCell>
                <mxCell id="Pq3CCJtutbr2L0LvL23w-62" value="Home page" style="html=1;dropTarget=0;whiteSpace=wrap;" parent="1" vertex="1">
                    <mxGeometry x="387.5" y="-110" width="130" height="60" as="geometry"/>
                </mxCell>
                <mxCell id="Pq3CCJtutbr2L0LvL23w-63" value="" style="shape=module;jettyWidth=8;jettyHeight=4;" parent="Pq3CCJtutbr2L0LvL23w-62" vertex="1">
                    <mxGeometry x="1" width="20" height="20" relative="1" as="geometry">
                        <mxPoint x="-27" y="7" as="offset"/>
                    </mxGeometry>
                </mxCell>
                <mxCell id="Pq3CCJtutbr2L0LvL23w-66" value="" style="endArrow=none;html=1;rounded=0;endFill=0;startArrow=oval;startFill=1;" parent="1" edge="1">
                    <mxGeometry width="50" height="50" relative="1" as="geometry">
                        <mxPoint x="560" y="390" as="sourcePoint"/>
                        <mxPoint x="559.5" y="360" as="targetPoint"/>
                    </mxGeometry>
                </mxCell>
                <mxCell id="Pq3CCJtutbr2L0LvL23w-80" value="" style="endArrow=halfCircle;html=1;rounded=0;startArrow=box;startFill=0;endFill=0;" parent="1" edge="1">
                    <mxGeometry width="50" height="50" relative="1" as="geometry">
                        <mxPoint x="559.5" y="440" as="sourcePoint"/>
                        <mxPoint x="559.5" y="390" as="targetPoint"/>
                    </mxGeometry>
                </mxCell>
                <mxCell id="Pq3CCJtutbr2L0LvL23w-87" style="edgeStyle=orthogonalEdgeStyle;rounded=0;orthogonalLoop=1;jettySize=auto;html=1;endArrow=oval;endFill=1;startArrow=box;startFill=0;" parent="1" edge="1">
                    <mxGeometry relative="1" as="geometry">
                        <mxPoint x="300" y="730" as="targetPoint"/>
                        <mxPoint x="300" y="690" as="sourcePoint"/>
                    </mxGeometry>
                </mxCell>
                <mxCell id="Pq3CCJtutbr2L0LvL23w-105" value="&lt;font style=&quot;font-size: 11px;&quot;&gt;&amp;lt;&amp;lt;delegate&amp;gt;&amp;gt;&lt;/font&gt;" style="text;html=1;align=center;verticalAlign=middle;resizable=0;points=[];autosize=1;strokeColor=none;fillColor=none;rotation=0;fontSize=7;" parent="1" vertex="1">
                    <mxGeometry x="540" y="215" width="90" height="30" as="geometry"/>
                </mxCell>
                <mxCell id="14" value="Frontend" style="text;html=1;strokeColor=none;fillColor=none;align=center;verticalAlign=middle;whiteSpace=wrap;rounded=0;" parent="1" vertex="1">
                    <mxGeometry x="370" y="-160" width="60" height="30" as="geometry"/>
                </mxCell>
                <mxCell id="15" value="Backend" style="text;html=1;strokeColor=none;fillColor=none;align=center;verticalAlign=middle;whiteSpace=wrap;rounded=0;" parent="1" vertex="1">
                    <mxGeometry x="140" y="190" width="60" height="30" as="geometry"/>
                </mxCell>
                <mxCell id="19" value="" style="html=1;dropTarget=0;whiteSpace=wrap;" parent="1" vertex="1">
                    <mxGeometry x="195" y="450" width="730" height="170" as="geometry"/>
                </mxCell>
                <mxCell id="20" value="" style="shape=module;jettyWidth=8;jettyHeight=4;" parent="19" vertex="1">
                    <mxGeometry x="1" width="20" height="20" relative="1" as="geometry">
                        <mxPoint x="-27" y="7" as="offset"/>
                    </mxGeometry>
                </mxCell>
                <mxCell id="39" style="edgeStyle=none;html=1;exitX=0.5;exitY=1;exitDx=0;exitDy=0;startArrow=none;startFill=0;endArrow=classic;endFill=1;" parent="1" source="Pq3CCJtutbr2L0LvL23w-1" edge="1">
                    <mxGeometry relative="1" as="geometry">
                        <mxPoint x="300" y="690" as="targetPoint"/>
                    </mxGeometry>
                </mxCell>
                <mxCell id="Pq3CCJtutbr2L0LvL23w-1" value="Nash request service" style="html=1;dropTarget=0;whiteSpace=wrap;" parent="1" vertex="1">
                    <mxGeometry x="220" y="510" width="160" height="80" as="geometry"/>
                </mxCell>
                <mxCell id="Pq3CCJtutbr2L0LvL23w-2" value="" style="shape=module;jettyWidth=8;jettyHeight=4;" parent="Pq3CCJtutbr2L0LvL23w-1" vertex="1">
                    <mxGeometry x="1" width="20" height="20" relative="1" as="geometry">
                        <mxPoint x="-27" y="7" as="offset"/>
                    </mxGeometry>
                </mxCell>
                <mxCell id="40" style="edgeStyle=none;html=1;exitX=0.5;exitY=1;exitDx=0;exitDy=0;startArrow=none;startFill=0;endArrow=classic;endFill=1;entryX=0.518;entryY=1;entryDx=0;entryDy=0;entryPerimeter=0;" parent="1" source="Pq3CCJtutbr2L0LvL23w-9" target="8" edge="1">
                    <mxGeometry relative="1" as="geometry">
                        <mxPoint x="560" y="670" as="targetPoint"/>
                    </mxGeometry>
                </mxCell>
                <mxCell id="Pq3CCJtutbr2L0LvL23w-9" value="Ressource Prediction request service" style="html=1;dropTarget=0;whiteSpace=wrap;" parent="1" vertex="1">
                    <mxGeometry x="480" y="520" width="160" height="80" as="geometry"/>
                </mxCell>
                <mxCell id="Pq3CCJtutbr2L0LvL23w-10" value="" style="shape=module;jettyWidth=8;jettyHeight=4;" parent="Pq3CCJtutbr2L0LvL23w-9" vertex="1">
                    <mxGeometry x="1" width="20" height="20" relative="1" as="geometry">
                        <mxPoint x="-27" y="7" as="offset"/>
                    </mxGeometry>
                </mxCell>
                <mxCell id="41" style="edgeStyle=none;html=1;startArrow=none;startFill=0;endArrow=classic;endFill=1;" parent="1" source="Pq3CCJtutbr2L0LvL23w-11" edge="1">
                    <mxGeometry relative="1" as="geometry">
                        <mxPoint x="830" y="690" as="targetPoint"/>
                    </mxGeometry>
                </mxCell>
                <mxCell id="Pq3CCJtutbr2L0LvL23w-11" value="Lst request service" style="html=1;dropTarget=0;whiteSpace=wrap;" parent="1" vertex="1">
                    <mxGeometry x="750" y="520" width="160" height="80" as="geometry"/>
                </mxCell>
                <mxCell id="Pq3CCJtutbr2L0LvL23w-12" value="" style="shape=module;jettyWidth=8;jettyHeight=4;" parent="Pq3CCJtutbr2L0LvL23w-11" vertex="1">
                    <mxGeometry x="1" width="20" height="20" relative="1" as="geometry">
                        <mxPoint x="-27" y="7" as="offset"/>
                    </mxGeometry>
                </mxCell>
                <mxCell id="21" value="Request Services" style="text;html=1;strokeColor=none;fillColor=none;align=center;verticalAlign=middle;whiteSpace=wrap;rounded=0;" parent="1" vertex="1">
                    <mxGeometry x="180" y="445" width="130" height="30" as="geometry"/>
                </mxCell>
                <mxCell id="22" value="" style="endArrow=classic;html=1;entryX=0.335;entryY=-0.007;entryDx=0;entryDy=0;exitX=0.5;exitY=0;exitDx=0;exitDy=0;entryPerimeter=0;" parent="1" source="19" target="Pq3CCJtutbr2L0LvL23w-1" edge="1">
                    <mxGeometry width="50" height="50" relative="1" as="geometry">
                        <mxPoint x="440" y="530" as="sourcePoint"/>
                        <mxPoint x="490" y="480" as="targetPoint"/>
                    </mxGeometry>
                </mxCell>
                <mxCell id="23" value="" style="endArrow=classic;html=1;entryX=0.5;entryY=0;entryDx=0;entryDy=0;" parent="1" target="Pq3CCJtutbr2L0LvL23w-9" edge="1">
                    <mxGeometry width="50" height="50" relative="1" as="geometry">
                        <mxPoint x="560" y="440" as="sourcePoint"/>
                        <mxPoint x="310" y="495" as="targetPoint"/>
                    </mxGeometry>
                </mxCell>
                <mxCell id="24" value="" style="endArrow=classic;html=1;entryX=0.5;entryY=0;entryDx=0;entryDy=0;exitX=0.515;exitY=0.004;exitDx=0;exitDy=0;exitPerimeter=0;" parent="1" source="19" target="Pq3CCJtutbr2L0LvL23w-11" edge="1">
                    <mxGeometry width="50" height="50" relative="1" as="geometry">
                        <mxPoint x="575" y="460" as="sourcePoint"/>
                        <mxPoint x="320" y="505" as="targetPoint"/>
                    </mxGeometry>
                </mxCell>
                <mxCell id="25" value="&lt;font style=&quot;font-size: 10px;&quot;&gt;&amp;lt;&amp;lt;delegate&amp;gt;&amp;gt;&lt;/font&gt;" style="text;html=1;align=center;verticalAlign=middle;resizable=0;points=[];autosize=1;strokeColor=none;fillColor=none;rotation=0;fontSize=7;strokeWidth=5;" parent="1" vertex="1">
                    <mxGeometry x="545" y="455" width="90" height="30" as="geometry"/>
                </mxCell>
                <mxCell id="26" value="&lt;font style=&quot;font-size: 10px;&quot;&gt;&amp;lt;&amp;lt;delegate&amp;gt;&amp;gt;&lt;/font&gt;" style="text;html=1;align=center;verticalAlign=middle;resizable=0;points=[];autosize=1;strokeColor=none;fillColor=none;rotation=10;fontSize=7;" parent="1" vertex="1">
                    <mxGeometry x="690" y="465" width="90" height="30" as="geometry"/>
                </mxCell>
                <mxCell id="27" value="&lt;font style=&quot;font-size: 11px;&quot;&gt;&amp;lt;&amp;lt;delegate&amp;gt;&amp;gt;&lt;/font&gt;" style="text;html=1;align=center;verticalAlign=middle;resizable=0;points=[];autosize=1;strokeColor=none;fillColor=none;rotation=-10;fontSize=7;" parent="1" vertex="1">
                    <mxGeometry x="330" y="455" width="90" height="30" as="geometry"/>
                </mxCell>
                <mxCell id="32" value="" style="endArrow=classic;html=1;exitX=0.5;exitY=0;exitDx=0;exitDy=0;entryX=0.412;entryY=0.008;entryDx=0;entryDy=0;entryPerimeter=0;" parent="1" source="8" target="7e5tT1p5ieJpJA2HxBmE-7" edge="1">
                    <mxGeometry width="50" height="50" relative="1" as="geometry">
                        <mxPoint x="540" y="250" as="sourcePoint"/>
                        <mxPoint x="590" y="200" as="targetPoint"/>
                    </mxGeometry>
                </mxCell>
                <mxCell id="33" value="PCF report" style="html=1;dropTarget=0;whiteSpace=wrap;" parent="1" vertex="1">
                    <mxGeometry x="577.5" y="-110" width="130" height="60" as="geometry"/>
                </mxCell>
                <mxCell id="34" value="" style="shape=module;jettyWidth=8;jettyHeight=4;" parent="33" vertex="1">
                    <mxGeometry x="1" width="20" height="20" relative="1" as="geometry">
                        <mxPoint x="-27" y="7" as="offset"/>
                    </mxGeometry>
                </mxCell>
                <mxCell id="42" value="&lt;font style=&quot;font-size: 10px;&quot;&gt;&amp;lt;&amp;lt;delegate&amp;gt;&amp;gt;&lt;/font&gt;" style="text;html=1;align=center;verticalAlign=middle;resizable=0;points=[];autosize=1;strokeColor=none;fillColor=none;rotation=0;fontSize=7;" parent="1" vertex="1">
                    <mxGeometry x="820" y="615" width="90" height="30" as="geometry"/>
                </mxCell>
                <mxCell id="43" value="&lt;font style=&quot;font-size: 10px;&quot;&gt;&amp;lt;&amp;lt;delegate&amp;gt;&amp;gt;&lt;/font&gt;" style="text;html=1;align=center;verticalAlign=middle;resizable=0;points=[];autosize=1;strokeColor=none;fillColor=none;rotation=0;fontSize=7;" parent="1" vertex="1">
                    <mxGeometry x="290" y="615" width="90" height="30" as="geometry"/>
                </mxCell>
                <mxCell id="44" value="&lt;font style=&quot;font-size: 10px;&quot;&gt;&amp;lt;&amp;lt;delegate&amp;gt;&amp;gt;&lt;/font&gt;" style="text;html=1;align=center;verticalAlign=middle;resizable=0;points=[];autosize=1;strokeColor=none;fillColor=none;rotation=0;fontSize=7;" parent="1" vertex="1">
                    <mxGeometry x="550" y="615" width="90" height="30" as="geometry"/>
                </mxCell>
                <mxCell id="45" value="Geo plotter" style="html=1;dropTarget=0;whiteSpace=wrap;" parent="1" vertex="1">
                    <mxGeometry x="750" y="345" width="160" height="80" as="geometry"/>
                </mxCell>
                <mxCell id="46" value="" style="shape=module;jettyWidth=8;jettyHeight=4;" parent="45" vertex="1">
                    <mxGeometry x="1" width="20" height="20" relative="1" as="geometry">
                        <mxPoint x="-27" y="7" as="offset"/>
                    </mxGeometry>
                </mxCell>
                <mxCell id="48" style="edgeStyle=orthogonalEdgeStyle;rounded=0;orthogonalLoop=1;jettySize=auto;html=1;endArrow=halfCircle;endFill=0;" parent="1" edge="1">
                    <mxGeometry relative="1" as="geometry">
                        <mxPoint x="690" y="320" as="targetPoint"/>
                        <mxPoint x="750.04" y="375.0034782608695" as="sourcePoint"/>
                    </mxGeometry>
                </mxCell>
                <mxCell id="50" value="Lst plotter" style="html=1;dropTarget=0;whiteSpace=wrap;" parent="1" vertex="1">
                    <mxGeometry x="220" y="360" width="160" height="80" as="geometry"/>
                </mxCell>
                <mxCell id="51" value="" style="shape=module;jettyWidth=8;jettyHeight=4;" parent="50" vertex="1">
                    <mxGeometry x="1" width="20" height="20" relative="1" as="geometry">
                        <mxPoint x="-27" y="7" as="offset"/>
                    </mxGeometry>
                </mxCell>
                <mxCell id="55" value="" style="endArrow=none;html=1;startArrow=oval;startFill=1;" parent="1" edge="1">
                    <mxGeometry width="50" height="50" relative="1" as="geometry">
                        <mxPoint x="340" y="320" as="sourcePoint"/>
                        <mxPoint x="480" y="319.65999999999997" as="targetPoint"/>
                    </mxGeometry>
                </mxCell>
                <mxCell id="56" value="" style="endArrow=none;html=1;" parent="1" edge="1">
                    <mxGeometry width="50" height="50" relative="1" as="geometry">
                        <mxPoint x="290" y="300" as="sourcePoint"/>
                        <mxPoint x="290" y="280" as="targetPoint"/>
                    </mxGeometry>
                </mxCell>
                <mxCell id="57" value="" style="endArrow=none;html=1;" parent="1" edge="1">
                    <mxGeometry width="50" height="50" relative="1" as="geometry">
                        <mxPoint x="290" y="360" as="sourcePoint"/>
                        <mxPoint x="290" y="340" as="targetPoint"/>
                    </mxGeometry>
                </mxCell>
                <mxCell id="61" value="" style="endArrow=none;html=1;" parent="1" edge="1">
                    <mxGeometry width="50" height="50" relative="1" as="geometry">
                        <mxPoint x="290" y="340" as="sourcePoint"/>
                        <mxPoint x="340" y="340" as="targetPoint"/>
                    </mxGeometry>
                </mxCell>
                <mxCell id="62" value="" style="endArrow=none;html=1;" parent="1" edge="1">
                    <mxGeometry width="50" height="50" relative="1" as="geometry">
                        <mxPoint x="290" y="300" as="sourcePoint"/>
                        <mxPoint x="340" y="300" as="targetPoint"/>
                    </mxGeometry>
                </mxCell>
                <mxCell id="65" value="" style="endArrow=none;html=1;startArrow=halfCircle;startFill=0;" parent="1" edge="1">
                    <mxGeometry width="50" height="50" relative="1" as="geometry">
                        <mxPoint x="340" y="320" as="sourcePoint"/>
                        <mxPoint x="340" y="300" as="targetPoint"/>
                    </mxGeometry>
                </mxCell>
                <mxCell id="66" value="" style="endArrow=none;html=1;startArrow=halfCircle;startFill=0;" parent="1" edge="1">
                    <mxGeometry width="50" height="50" relative="1" as="geometry">
                        <mxPoint x="340" y="320" as="sourcePoint"/>
                        <mxPoint x="340" y="340" as="targetPoint"/>
                    </mxGeometry>
                </mxCell>
            </root>
        </mxGraphModel>
    </diagram>
</mxfile>